# xmcd
#
# Track frame offsets: 
#        150
#        15920
#        33150
#        46720
#        55310
#        70982
#        82465
#        94965
#        107387
#        125657
#
# Disc length: 1908 seconds
#
# Revision: 4
# Processed by: cddbd v1.5.2PL0 Copyright (c) Steve Scherf et al.
# Submitted via: ExactAudioCopy v0.95b4
#
DISCID=7d07720a
DTITLE=Stray Cats - Rock Therapy
DYEAR=1986
DGENRE=Rockabilly
TTITLE0=Rock Therapy
TTITLE1=Reckless
TTITLE2=Race With The Devil
TTITLE3=Looking To Love Someone
TTITLE4=I Wanna Cry
TTITLE5=I'm A Rocker
TTITLE6=Beautiful Delilah
TTITLE7=One Hand Loose
TTITLE8=Broken Man
TTITLE9=Change Of Heart
EXTD=YEAR: 1986
EXTT0=
EXTT1=
EXTT2=
EXTT3=
EXTT4=
EXTT5=
EXTT6=
EXTT7=
EXTT8=
EXTT9=
PLAYORDER=
